<svg xmlns="http://www.w3.org/2000/svg" version="1.1" xmlns:xlink="http://www.w3.org/1999/xlink" xmlns:svgjs="http://svgjs.dev/svgjs" width="100%" height="100%" viewBox="0 0 1000 600"><rect width="1000" height="600" x="0" y="0" fill="#2caeba"/><g><rect width="333.3333333333333" height="333.3333333333333" rx="13.333333333333334" ry="13.333333333333334" y="374.81664150629" fill="#ffffff" transform="matrix(0.3545149667757614,0,0,0.35451496677576133,0,108.03606160704771)" x="352.5944213867188"/><path d="M378.63077912123225 472.748670241801L378.63077912123225 472.748670241801Q378.63077912123225 466.48331395837596 381.21063170852494 466.48331395837596L381.21063170852494 466.48331395837596L439.2147898799619 466.48331395837596Q478.59297937171465 466.48331395837596 495.94319677196853 485.42113295081L495.94319677196853 485.42113295081Q512.0743629496556 503.05485063538174 512.1877630633826 540.9304886202497L512.1877630633826 540.9304886202497L512.1877630633826 541.2423389329994Q512.1877630633826 579.1179769178673 489.36599017579385 598.9346467916866L489.36599017579385 598.9346467916866Q469.20911996079303 616.3699142772359 439.2147898799619 616.483314390963L439.2147898799619 616.483314390963L384.1023346085672 616.483314390963Q381.40908190754743 616.483314390963 381.40908190754743 610.8133087046056L381.40908190754743 610.8133087046056Q381.40908190754743 606.2206040986559 383.98893449484007 603.2155010848865L383.98893449484007 603.2155010848865Q384.6976852056348 602.4217002887965 387.3909379066546 602.4217002887965L387.3909379066546 602.4217002887965Q389.9707904939472 602.4217002887965 392.86249339398955 602.1382000044787L392.86249339398955 602.1382000044787Q395.867596407759 601.9397498054561 397.4551979999391 601.429449293684L397.4551979999391 601.429449293684Q400.26185081468606 600.5222483838668 400.26185081468606 598.1408459955967L400.26185081468606 598.1408459955967L400.26185081468606 481.9340794537001Q400.26185081468606 480.54492806054253 399.0427995921192 480.54492806054253L399.0427995921192 480.54492806054253L382.71318321540963 480.54492806054253Q379.9065304006627 480.54492806054253 378.91427940555013 475.3568728575254L378.91427940555013 475.3568728575254Q378.71582920652764 473.9677214643678 378.63077912123225 472.748670241801ZM421.2692218826405 481.82067933997297L421.2692218826405 601.1459490093662L435.92618658187456 601.1459490093662Q457.2454079625787 601.1459490093662 472.21422297456246 587.282785106222L472.21422297456246 587.282785106222Q488.940739749317 571.6335694118754 488.940739749317 544.4175421173595L488.940739749317 544.4175421173595Q488.940739749317 497.78174534706926 459.8536105783032 485.7046332351278L459.8536105783032 485.7046332351278Q450.4697511673815 481.82067933997297 438.4209890838719 481.82067933997297L438.4209890838719 481.82067933997297L421.2692218826405 481.82067933997297ZM526.3344272508446 472.748670241801L526.3344272508446 472.748670241801Q526.3344272508446 466.48331395837596 528.9142798381372 466.48331395837596L528.9142798381372 466.48331395837596L586.9184380095742 466.48331395837596Q626.2966275013271 466.48331395837596 643.6468449015808 485.42113295081L643.6468449015808 485.42113295081Q659.7780110792678 503.05485063538174 659.8914111929951 540.9304886202497L659.8914111929951 540.9304886202497L659.8914111929951 541.2423389329994Q659.8914111929951 579.1179769178673 637.0696383054062 598.9346467916866L637.0696383054062 598.9346467916866Q616.941118118837 616.3699142772359 586.9184380095742 616.483314390963L586.9184380095742 616.483314390963L531.8059827381796 616.483314390963Q529.1127300371597 616.483314390963 529.1127300371597 610.8133087046056L529.1127300371597 610.8133087046056Q529.1127300371597 606.2206040986559 531.7209326528841 603.2155010848865L531.7209326528841 603.2155010848865Q532.401333335247 602.4217002887965 535.094586036267 602.4217002887965L535.094586036267 602.4217002887965Q537.7027886519913 602.4217002887965 540.5944915520336 602.1382000044787L540.5944915520336 602.1382000044787Q543.5712445373713 601.9397498054561 545.1588461295514 601.429449293684L545.1588461295514 601.429449293684Q547.9654989442984 600.5222483838668 547.9654989442984 598.1408459955967L547.9654989442984 598.1408459955967L547.9654989442984 481.9340794537001Q547.9654989442984 480.54492806054253 546.7747977501633 480.54492806054253L546.7747977501633 480.54492806054253L530.416831345022 480.54492806054253Q527.6385285587069 480.54492806054253 526.6179275351624 475.3568728575254L526.6179275351624 475.3568728575254Q526.4194773361401 473.9677214643678 526.3344272508446 472.748670241801ZM568.9728700122528 481.82067933997297L568.9728700122528 601.1459490093662L583.6298347114869 601.1459490093662Q604.9774061206228 601.1459490093662 619.9178711041748 587.282785106222L619.9178711041748 587.282785106222Q636.6727379073611 571.6335694118754 636.6727379073611 544.4175421173595L636.6727379073611 544.4175421173595Q636.6727379073611 497.78174534706926 607.5572587079155 485.7046332351278L607.5572587079155 485.7046332351278Q598.2017493254257 481.82067933997297 586.1246372134842 481.82067933997297L586.1246372134842 481.82067933997297L568.9728700122528 481.82067933997297Z " fill="#2caeba" transform="matrix(0.3545149667757614,0,0,0.35451496677576133,0,108.03606160704771)"/><path d="M769.2610891682727 479.6598890806676L769.2610891682727 479.6598890806676Q769.2610891682727 473.77701443053155 771.6834493183287 473.77701443053155L771.6834493183287 473.77701443053155L826.146623681127 473.77701443053155Q863.1208901473669 473.77701443053155 879.4119276400515 491.5587350924813L879.4119276400515 491.5587350924813Q894.5583334134789 508.11596600824896 894.664810782712 543.6794073321486L894.664810782712 543.6794073321486L894.664810782712 543.97222009754Q894.664810782712 579.5356614214395 873.2362402245241 598.1425816949468L873.2362402245241 598.1425816949468Q854.309887843317 614.5134772145564 826.146623681127 614.6199545837896L826.146623681127 614.6199545837896L774.3986222337762 614.6199545837896Q771.869784714487 614.6199545837896 771.869784714487 609.2960861221279L771.869784714487 609.2960861221279Q771.869784714487 604.983752668182 774.2921448645429 602.1621023835014L774.2921448645429 602.1621023835014Q774.9576284222507 601.4167607988688 777.4864659415399 601.4167607988688L777.4864659415399 601.4167607988688Q779.908826091596 601.4167607988688 782.6239990070434 601.1505673757856L782.6239990070434 601.1505673757856Q785.4456492917241 600.9642319796276 786.9363324609892 600.485083818078L786.9363324609892 600.485083818078Q789.5716473495117 599.6332648642122 789.5716473495117 597.3972401103142L789.5716473495117 597.3972401103142L789.5716473495117 488.2845559885594Q789.5716473495117 486.9802082154523 788.4270156302546 486.9802082154523L788.4270156302546 486.9802082154523L773.0942744606691 486.9802082154523Q770.4589595721466 486.9802082154523 769.5272825913557 482.10886857303194L769.5272825913557 482.10886857303194Q769.3409471951976 480.80452079992483 769.2610891682727 479.6598890806676ZM809.2965799999681 488.1780786193262L809.2965799999681 600.2188903949948L823.0587799733634 600.2188903949948Q843.076525389211 600.2188903949948 857.1315381279977 587.2020320062322L857.1315381279977 587.2020320062322Q872.8369500898995 572.5081550520463 872.8369500898995 546.9535864360705L872.8369500898995 546.9535864360705Q872.8369500898995 503.1647683389036 845.5255048815753 491.8249285155644L845.5255048815753 491.8249285155644Q836.7145025775253 488.1780786193262 825.4012820964945 488.1780786193262L825.4012820964945 488.1780786193262L809.2965799999681 488.1780786193262ZM934.9931143797988 495.5782557810358L934.9931143797988 495.5782557810358Q926.2885894449821 495.5782557810358 923.0942683679851 487.9118851962431L923.0942683679851 487.9118851962431Q922.1625913871943 485.569383073112 922.1625913871943 482.74773278843134L922.1625913871943 482.74773278843134Q922.1625913871943 473.8568724574564 929.9354393412203 470.68917072276776L929.9354393412203 470.68917072276776Q932.2779414643514 469.757493741977 934.9931143797988 469.757493741977L934.9931143797988 469.757493741977Q940.4234602106937 469.757493741977 944.1235487915485 473.4575823228318Q947.797018030095 477.15767090368666 947.797018030095 482.74773278843134L947.797018030095 482.74773278843134Q947.797018030095 488.2845559885594 944.0703101069319 492.0378832540309L944.0703101069319 492.0378832540309Q940.5033182376186 495.5782557810358 934.9931143797988 495.5782557810358ZM960.4412056265414 614.6199545837896L912.712724867745 614.6199545837896Q910.2903647176889 614.6199545837896 910.2903647176889 608.9234153298116L910.2903647176889 608.9234153298116Q910.2903647176889 604.4247464797077 911.6745705177209 602.9340633104423Q913.0853956600613 601.4167607988688 914.1235500100853 601.4167607988688L914.1235500100853 601.4167607988688L915.0552269908761 601.4167607988688Q925.9957766795907 601.4167607988688 927.406601821931 599.2605940718959L927.406601821931 599.2605940718959Q927.8857499834805 598.6217298564964 927.8857499834805 597.6900528757055L927.8857499834805 597.6900528757055L927.8857499834805 535.3475531896481L911.4083770946379 535.3475531896481Q908.6932041791904 535.2676951627232 907.7615271983997 530.5826909164609L907.7615271983997 530.5826909164609Q907.5751918022415 529.2783431433538 907.5751918022415 527.8675180010135L907.5751918022415 527.8675180010135Q907.5751918022415 523.5551845470677 910.1040293215308 522.5702688816602Q912.63286684082 521.5853532162528 916.7322455562995 520.9464890008535Q920.8582436140873 520.2810054431458 925.3569124641913 519.9083346508294L925.3569124641913 519.9083346508294Q933.9549600297748 519.1629930661968 941.9141433799589 519.0831350392718L941.9141433799589 519.0831350392718L941.9940014068839 519.0831350392718Q945.9336640685135 519.0831350392718 946.1199994646717 527.0156990471477L946.1199994646717 527.0156990471477L946.1199994646717 601.4167607988688L961.8520307688817 601.4167607988688Q964.2743909189377 601.4167607988688 964.2743909189377 607.139919395155L964.2743909189377 607.139919395155Q964.2743909189377 611.6119689029508 962.8635657765974 613.1292714145243Q961.4793599765653 614.6199545837896 960.4412056265414 614.6199545837896L960.4412056265414 614.6199545837896ZM998.7996778928133 602.0822443565764L998.7996778928133 602.0822443565764L1009.4740341584449 602.0822443565764Q1022.4908925472075 602.0822443565764 1026.9895613973115 594.1230610063924L1026.9895613973115 594.1230610063924Q1028.2939091704186 591.7007008563362 1028.2939091704186 588.7991925447307L1028.2939091704186 588.7991925447307Q1028.2939091704186 585.8976842331251 1026.9363227126948 583.7947561907688Q1025.5787362549713 581.6652088061041 1022.6772279433657 579.9083322137558L1022.6772279433657 579.9083322137558Q1018.2850364624949 577.1931592983085 1008.0365896737962 574.0520769059281Q997.7881428850976 570.9109945135476 992.4376550811277 568.6217310750333Q987.113786619466 566.3324676365187 983.1741239578365 563.1381465595217L983.1741239578365 563.1381465595217Q975.1350825807274 556.4034529555198 975.1350825807274 544.6110843129393L975.1350825807274 544.6110843129393Q975.1350825807274 527.3085118125391 994.5139637811757 521.3191597931698L994.5139637811757 521.3191597931698Q1001.8076635736521 519.0831350392718 1008.9150279699704 519.0831350392718L1008.9150279699704 519.0831350392718Q1015.9425343393636 519.0831350392718 1021.931886358733 520.0148120200627L1021.931886358733 520.0148120200627Q1028.1075737742606 520.9464890008535 1032.9789134166808 523.1825137547513L1032.9789134166808 523.1825137547513Q1044.1057985015536 528.3466661625631 1044.1057985015536 537.8763907089374L1044.1057985015536 537.8763907089374L1044.1057985015536 538.355538870487Q1044.1057985015536 543.5995493052236 1040.4589486053155 547.2463992014618L1040.4589486053155 547.2463992014618Q1036.8919567360022 550.7867717284669 1031.275275508949 550.8932490977L1031.275275508949 550.8932490977Q1022.4908925472075 550.8932490977 1019.2965714702106 543.2268785129073L1019.2965714702106 543.2268785129073Q1018.3648944894197 540.8843763897762 1018.3648944894197 539.3670738782026L1018.3648944894197 539.3670738782026Q1018.3648944894197 537.8763907089374 1019.4829068663687 532.2597094818843L1019.4829068663687 532.2597094818843L1010.2193757430774 532.2597094818843Q1002.659482527518 532.2597094818843 999.0126326312798 534.8950243704069L999.0126326312798 534.8950243704069Q992.3577970542027 539.4735512474358 992.3577970542027 544.9837551052556L992.3577970542027 544.9837551052556Q992.3577970542027 552.3040742400403 1005.4545134698903 556.7761237478361L1005.4545134698903 556.7761237478361L1012.5618778662085 559.2251032402005Q1030.6364112935498 565.2144552595698 1035.7739443590533 569.4203113442825Q1040.938096766865 573.6261674289951 1043.2539795476878 578.5773650983404Q1045.596481670819 583.5551821099941 1045.596481670819 589.9172049216797L1045.596481670819 589.9172049216797Q1045.596481670819 596.3590857602901 1043.0676441515297 601.0440900065523L1043.0676441515297 601.0440900065523Q1040.6452840014736 605.8355716220478 1036.1466151513696 609.1896087528946L1036.1466151513696 609.1896087528946Q1026.5104132357621 616.4833085453711 1011.0711946969434 616.4833085453711L1011.0711946969434 616.4833085453711Q997.4154720927813 616.4833085453711 986.5547804309916 612.3839298298917L986.5547804309916 612.3839298298917Q978.5157390538825 609.3759441490529 975.1350825807274 603.7592629219998L975.1350825807274 603.7592629219998Q973.458064015304 600.9642319796276 973.458064015304 597.6900528757055L973.458064015304 597.6900528757055Q973.458064015304 594.4957317987087 974.3897409960948 592.1532296755774L974.3897409960948 592.1532296755774Q975.5077533730437 589.7308695255215 977.1847719384672 588.0538509600981L977.1847719384672 588.0538509600981Q980.8316218347053 584.4868590907847 986.3684450348334 584.4868590907847L986.3684450348334 584.4868590907847Q991.7987908657283 584.4868590907847 995.5254987888914 588.133708987023L995.5254987888914 588.133708987023Q999.2788260543629 591.7007008563362 999.2788260543629 596.1727503641321L999.2788260543629 596.1727503641321L999.2788260543629 596.2792277333654Q999.198968027438 600.9642319796276 998.7996778928133 602.0822443565764ZM1114.301004168562 532.2597094818843L1114.301004168562 532.2597094818843L1105.5964792337452 532.2597094818843Q1095.8537999489047 532.2597094818843 1088.8529129218196 539.6598866435941L1088.8529129218196 539.6598866435941Q1079.8555752216114 549.1097531630434 1079.8555752216114 566.8914738249932L1079.8555752216114 566.8914738249932Q1079.8555752216114 592.8985712602102 1094.3631167796393 599.8462196026785L1094.3631167796393 599.8462196026785Q1098.9416436566682 602.0822443565764 1103.7065059298554 602.0822443565764L1103.7065059298554 602.0822443565764Q1108.497987545351 602.0822443565764 1112.3311728377473 601.0440900065523Q1116.1643581301437 600.0325549988368 1119.8112080263818 598.328917091105L1119.8112080263818 598.328917091105Q1123.5645352918532 596.7583758949149 1126.9185724227002 594.6820671948667L1126.9185724227002 594.6820671948667L1133.5734079997771 590.6625465063123Q1133.9460787920934 590.369733740921 1134.8777557728843 590.369733740921L1134.8777557728843 590.369733740921Q1135.7295747267501 590.369733740921 1137.0339224998572 591.4611267755615Q1138.3382702729643 592.525900467894 1139.4562826499132 594.0432029794674L1139.4562826499132 594.0432029794674Q1141.9052621422775 597.5835755064725 1141.9052621422775 599.9260776296035L1141.9052621422775 599.9260776296035Q1141.9052621422775 602.2685797527347 1140.8671077922534 603.1203987066006L1140.8671077922534 603.1203987066006Q1123.0055291033789 616.4833085453711 1101.949629337507 616.4833085453711L1101.949629337507 616.4833085453711Q1082.3844127409006 616.4833085453711 1071.3373856829528 602.9340633104423L1071.3373856829528 602.9340633104423Q1060.6630294173212 589.8107275524465 1060.6630294173212 566.8914738249932L1060.6630294173212 566.8914738249932Q1060.6630294173212 544.4247489167811 1074.2388939945583 531.3280325010936L1074.2388939945583 531.3280325010936Q1086.9629396179296 519.1629930661968 1106.7144916106943 519.0831350392718L1106.7144916106943 519.0831350392718Q1127.8768687457991 519.1629930661968 1135.9957681498333 528.3466661625631L1135.9957681498333 528.3466661625631Q1139.083611857597 531.887038689568 1139.083611857597 535.9065593781227L1139.083611857597 535.9065593781227Q1139.083611857597 539.9526994089854 1138.151934876806 542.2685821898083L1138.151934876806 542.2685821898083Q1137.0339224998572 544.6110843129393 1135.3569039344338 546.314722220671L1135.3569039344338 546.314722220671Q1131.6035766689622 549.9615721169092 1126.2797082073007 549.9615721169092L1126.2797082073007 549.9615721169092Q1120.9292204033309 549.9615721169092 1117.2025124801678 546.314722220671L1117.2025124801678 546.314722220671Q1113.4491852146962 542.7477303513577 1113.4491852146962 539.1807384820445L1113.4491852146962 539.1807384820445Q1113.4491852146962 535.6403659550394 1114.301004168562 532.2597094818843ZM1194.5849405704193 616.4833085453711L1194.5849405704193 616.4833085453711Q1184.5760678624954 616.4833085453711 1176.9895553046276 612.756600622208L1176.9895553046276 612.756600622208Q1169.4030427467599 609.0032733567366 1164.1856516543314 602.2685797527347L1164.1856516543314 602.2685797527347Q1153.6976307848581 588.6927151754976 1153.6976307848581 566.705138428835L1153.6976307848581 566.705138428835Q1153.6976307848581 543.6794073321486 1167.9123595774945 530.7690263126192L1167.9123595774945 530.7690263126192Q1180.822740597024 519.0831350392718 1200.4944345628637 519.0831350392718L1200.4944345628637 519.0831350392718L1200.7606279859467 519.0831350392718Q1219.101354836371 519.0831350392718 1230.2548592635521 533.005051066517L1230.2548592635521 533.005051066517Q1240.9025961868754 546.314722220671 1240.9025961868754 567.4504800134677L1240.9025961868754 567.4504800134677Q1240.9025961868754 591.0352172986286 1227.8058797711878 604.1319337143161L1227.8058797711878 604.1319337143161Q1215.454504940133 616.4833085453711 1194.5849405704193 616.4833085453711ZM1181.009075993182 540.0325574359103Q1177.4687034661772 543.7858847013817 1175.1794400276626 550.281004224609Q1172.890176589148 556.7761237478361 1172.890176589148 566.2259902672855L1172.890176589148 566.2259902672855Q1172.890176589148 575.7823341559681 1174.6470531814964 582.437169733045L1174.6470531814964 582.437169733045Q1176.5370264853864 588.9855279408889 1179.704728220075 593.2712420525265L1179.704728220075 593.2712420525265Q1186.1732284009938 602.0822443565764 1197.592926251258 602.0822443565764L1197.592926251258 602.0822443565764Q1209.3852948938386 602.0822443565764 1215.8271757324492 591.7805588832612L1215.8271757324492 591.7805588832612Q1221.7366697248935 582.437169733045 1221.7366697248935 567.2641446173095L1221.7366697248935 567.2641446173095Q1221.6301923556603 541.8959113974919 1206.8564573745493 535.4540305588814L1206.8564573745493 535.4540305588814Q1202.3577885244454 533.4841992280666 1197.7792616474162 533.4841992280666L1197.7792616474162 533.4841992280666Q1193.094257401154 533.4841992280666 1188.8351626318247 534.8950243704069Q1184.5760678624954 536.279230170439 1181.009075993182 540.0325574359103ZM1312.1359562039077 520.9464890008535L1347.2202493662578 520.9464890008535Q1349.5627514893888 520.9464890008535 1349.5627514893888 526.270357462515L1349.5627514893888 526.270357462515Q1349.5627514893888 531.1416971049355 1347.326726735491 533.3777218588333L1347.326726735491 533.3777218588333Q1346.5813851508585 534.1496827857743 1345.0640826392848 534.1496827857743L1345.0640826392848 534.1496827857743Q1343.4935414430945 534.1496827857743 1342.0827163007543 534.3360181819324L1342.0827163007543 534.3360181819324Q1340.7783685276474 534.5223535780906 1339.8200722045483 535.081359766565L1339.8200722045483 535.081359766565Q1338.329389035283 535.9065593781227 1337.5041894237254 538.1692034743287L1337.5041894237254 538.1692034743287L1306.2264622114633 614.6199545837896Q1305.587597996064 616.296973149213 1302.5796123152252 616.4034505184461L1302.5796123152252 616.4034505184461Q1299.5982459766947 616.4833085453711 1298.0809434651212 616.4833085453711L1298.0809434651212 616.4833085453711Q1292.8635523726928 616.4833085453711 1292.011733418827 614.6199545837896L1292.011733418827 614.6199545837896L1260.6541481796398 534.1496827857743L1250.1661273101665 534.1496827857743Q1247.7437671601106 534.1496827857743 1247.7437671601106 528.5330015587213L1247.7437671601106 528.5330015587213Q1247.7437671601106 523.927855339384 1249.0481149332177 522.4371721701186Q1250.3524627063248 520.9464890008535 1251.3906170563487 520.9464890008535L1251.3906170563487 520.9464890008535L1292.011733418827 520.9464890008535Q1294.354235541958 520.9464890008535 1294.354235541958 526.270357462515L1294.354235541958 526.270357462515Q1294.354235541958 531.1416971049355 1292.9434103996177 532.6323802742007Q1291.5325852572773 534.1496827857743 1290.5210502495615 534.1496827857743L1290.5210502495615 534.1496827857743Q1282.269054133986 534.1496827857743 1282.269054133986 538.1692034743287L1282.269054133986 538.1692034743287L1300.7961163805685 589.5445341293635L1323.4491766849387 534.1496827857743L1311.204279223117 534.1496827857743Q1308.7552997307528 534.1496827857743 1308.7552997307528 528.7193369548794L1308.7552997307528 528.7193369548794Q1308.7552997307528 523.847997312459 1310.0330281615513 522.3839334855021Q1311.2841372500418 520.9464890008535 1312.1359562039077 520.9464890008535L1312.1359562039077 520.9464890008535ZM1356.111109697233 566.5188030326769L1356.111109697233 566.5188030326769Q1356.111109697233 554.9127697862546 1359.944294989629 545.9420514283547L1359.944294989629 545.9420514283547Q1363.6976222551004 537.1310491243048 1370.059645066786 531.1416971049355L1370.059645066786 531.1416971049355Q1382.9700260863156 519.1629930661968 1401.9762364944474 519.0831350392718L1401.9762364944474 519.0831350392718L1402.2424299175307 519.0831350392718Q1419.6514797871641 519.0831350392718 1429.1013463066136 530.0236847279865L1429.1013463066136 530.0236847279865Q1438.5512128260627 540.8843763897762 1438.5512128260627 561.3812699671735L1438.5512128260627 561.3812699671735Q1438.5512128260627 565.7734614480443 1434.5316921375083 568.9411631827329L1434.5316921375083 568.9411631827329Q1430.618648818187 572.0290068904967 1424.6292967988177 572.0290068904967L1424.6292967988177 572.0290068904967L1375.3036555015228 572.0290068904967Q1376.9806740669462 593.9367256102341 1390.5565386441833 600.1124130257617L1390.5565386441833 600.1124130257617Q1394.8688720981293 602.0822443565764 1399.6337343713165 602.0822443565764L1399.6337343713165 602.0822443565764Q1404.3985966445036 602.0822443565764 1408.151923909975 600.9908513219359Q1411.8786318331381 599.9260776296035 1415.3657656755265 598.3022977487967Q1418.8262801756066 596.6518985256816 1422.1004592795286 594.602209167942L1422.1004592795286 594.602209167942Q1428.9150109104553 590.289875713996 1430.1395006566374 590.289875713996L1430.1395006566374 590.289875713996Q1431.2575130335865 590.369733740921 1432.5618608066936 591.4078880909449L1432.5618608066936 591.4078880909449Q1433.7064925259508 592.525900467894 1434.8245049029 594.0432029794674L1434.8245049029 594.0432029794674Q1437.2468650529556 597.5835755064725 1437.353342422189 600.0325549988368L1437.353342422189 600.0325549988368L1437.353342422189 600.2188903949948Q1437.353342422189 602.4549151488927 1436.315188072165 603.2002567335253L1436.315188072165 603.2002567335253Q1419.1989509679229 616.4833085453711 1397.3977096174185 616.4833085453711L1397.3977096174185 616.4833085453711Q1377.832493020812 616.4833085453711 1366.8653239897892 602.827585941209L1366.8653239897892 602.827585941209Q1356.111109697233 589.5445341293635 1356.111109697233 566.5188030326769ZM1375.3036555015228 558.0006134940184L1419.3852863640811 558.0006134940184L1419.3852863640811 557.6279427017021Q1419.3852863640811 539.1008804551195 1408.6044527292163 534.7885470011736L1408.6044527292163 534.7885470011736Q1405.2504155983695 533.4841992280666 1401.1244175405816 533.4841992280666L1401.1244175405816 533.4841992280666Q1396.998419482794 533.4841992280666 1392.5263699749983 534.9748823973318L1392.5263699749983 534.9748823973318Q1388.0277011248943 536.5720429358303 1384.2743738594227 539.5534092743608L1384.2743738594227 539.5534092743608Q1375.9425197169223 546.394580247596 1375.3036555015228 558.0006134940184L1375.3036555015228 558.0006134940184ZM1485.5343520002266 524.886151662483L1485.5343520002266 526.004164039432L1485.4544939733016 529.7308719625951Q1485.4544939733016 530.8755036818524 1485.4012552886852 531.9935160588013Q1485.3480166040683 533.1115284357502 1485.3480166040683 534.043205416541L1485.3480166040683 534.043205416541Q1496.3151856350912 524.0343327086172 1507.3355933507307 520.2810054431458L1507.3355933507307 520.2810054431458Q1510.902585220044 519.1629930661968 1514.7357705124407 519.0831350392718L1514.7357705124407 519.0831350392718L1514.9221059085987 519.0831350392718Q1518.5689558048368 519.0831350392718 1521.4704641164424 520.4673408393039L1521.4704641164424 520.4673408393039Q1524.4784497972812 521.9846433508775 1526.261945731938 524.0343327086172L1526.261945731938 524.0343327086172Q1529.4296474666266 527.7610406317804 1529.4296474666266 531.8071806626431L1529.4296474666266 531.8071806626431Q1529.4296474666266 535.9065593781227 1528.3914931166025 538.2490615012537Q1527.3799581088867 540.5915636243848 1525.489984804997 542.2685821898083L1525.489984804997 542.2685821898083Q1521.5769414856757 545.9420514283547 1517.7437561932795 545.9420514283547L1517.7437561932795 545.9420514283547Q1513.8040935316496 545.9420514283547 1511.75440417391 544.8506583937141Q1509.6780954738622 543.7858847013817 1508.1075542776719 542.08224679365L1508.1075542776719 542.08224679365Q1504.7268978045167 538.5418742666451 1504.7268978045167 534.1496827857743L1504.7268978045167 534.1496827857743Q1499.296551973622 536.6519009627552 1496.5015210312497 539.9526994089854L1496.5015210312497 539.9526994089854Q1493.679870746569 543.2268785129073 1491.8165167849872 546.0219094552797L1491.8165167849872 546.0219094552797L1487.6905187271996 552.3839322669653L1487.6905187271996 601.4167607988688L1510.4234370584948 601.4167607988688Q1512.5796037854677 601.4167607988688 1512.5796037854677 607.139919395155L1512.5796037854677 607.139919395155Q1512.5796037854677 611.7184462721839 1511.222017327744 613.1825100991409Q1509.8644308700202 614.6199545837896 1508.7464184930711 614.6199545837896L1508.7464184930711 614.6199545837896L1454.283244130273 614.6199545837896Q1451.6745485840588 614.6199545837896 1451.6745485840588 608.7370799336534L1451.6745485840588 608.7370799336534Q1451.7544066109838 604.4247464797077 1454.203386103348 602.0822443565764L1454.203386103348 602.0822443565764Q1454.9487276879806 601.4167607988688 1457.4775652072701 601.4167607988688L1457.4775652072701 601.4167607988688Q1459.979783384251 601.4167607988688 1462.66833695739 601.2038060604023Q1465.3302711882209 600.9642319796276 1466.820954357486 600.485083818078L1466.820954357486 600.485083818078Q1469.4562692460086 599.6332648642122 1469.4562692460086 597.3972401103142L1469.4562692460086 597.3972401103142L1469.4562692460086 535.7202239819644L1452.9788963571657 535.7202239819644Q1449.3320464609276 535.7202239819644 1449.3320464609276 528.426524189488L1449.3320464609276 528.426524189488Q1449.3320464609276 523.7415199432257 1451.7011679263671 522.7299849355101Q1454.0969087341148 521.6918305854861 1457.9300940265111 521.0263470277785L1457.9300940265111 521.0263470277785Q1461.8697566881408 520.2810054431458 1465.9691354036202 519.9083346508294L1465.9691354036202 519.9083346508294Q1473.8484607268795 519.1629930661968 1478.4269876039084 519.0831350392718L1478.4269876039084 519.0831350392718L1479.172329188541 519.0831350392718Q1483.0055144809373 519.0831350392718 1483.75085606557 519.5356638585131L1483.75085606557 519.5356638585131Q1484.709152388669 519.9083346508294 1485.0818231809856 520.8400116316202L1485.0818231809856 520.8400116316202Q1485.5343520002266 521.771688612411 1485.5343520002266 524.886151662483L1485.5343520002266 524.886151662483ZM1597.6550218028203 601.4167607988688L1613.3870531070304 601.4167607988688Q1615.9158906263194 601.4167607988688 1615.9158906263194 607.6989255836295L1615.9158906263194 607.6989255836295Q1615.9158906263194 611.7184462721839 1614.4518267993626 613.1825100991409Q1613.0143823147139 614.6199545837896 1612.056085991615 614.6199545837896L1612.056085991615 614.6199545837896L1562.3843932443122 614.6199545837896Q1560.121749148106 614.6199545837896 1560.121749148106 609.2960861221279L1560.121749148106 609.2960861221279Q1560.121749148106 604.5046045066324 1562.6505866673951 602.0822443565764L1562.6505866673951 602.0822443565764Q1563.3959282520277 601.3369027719439 1565.658572348234 601.3369027719439L1565.658572348234 601.3369027719439L1565.924765771317 601.3369027719439Q1566.2974365636335 601.4167607988688 1566.7765847251828 601.4167607988688L1566.7765847251828 601.4167607988688Q1568.9327514521558 601.4167607988688 1571.1687762060537 601.1505673757856L1571.1687762060537 601.1505673757856Q1573.883949121501 600.9642319796276 1575.3746322907664 600.485083818078L1575.3746322907664 600.485083818078Q1577.9034698100556 599.7397422334452 1577.9034698100556 597.3972401103142L1577.9034698100556 597.3972401103142L1577.9034698100556 488.1780786193262L1546.5458845708688 488.1780786193262L1542.4465058553892 502.0467559619547Q1541.5946869015233 504.46911611201074 1537.761501609127 504.46911611201074L1537.761501609127 504.46911611201074Q1533.0764973628648 504.3892580850858 1530.6541372128088 501.56760780040514L1530.6541372128088 501.56760780040514Q1529.9087956281762 500.6359308196144 1529.9087956281762 499.7042538388236L1529.9087956281762 499.7042538388236L1529.9087956281762 499.33158304650726L1533.449168155181 473.77701443053155L1642.109323457695 473.77701443053155L1645.6496959846997 499.33158304650726L1645.6496959846997 499.7042538388236Q1645.6496959846997 503.0582909696704 1640.5121629191965 504.2029226889277L1640.5121629191965 504.2029226889277Q1639.3941505422474 504.46911611201074 1638.1696607960653 504.46911611201074L1638.1696607960653 504.46911611201074L1637.6106546075907 504.46911611201074Q1633.9638047113526 504.46911611201074 1633.1119857574865 502.0467559619547L1633.1119857574865 502.0467559619547L1629.0126070420072 488.1780786193262L1597.6550218028203 488.1780786193262L1597.6550218028203 601.4167607988688ZM1719.5982289171795 601.4167607988688L1719.5982289171795 601.4167607988688Q1729.314288859712 601.4167607988688 1729.314288859712 597.3972401103142L1729.314288859712 597.3972401103142L1729.314288859712 569.6066467404405Q1729.314288859712 551.6385906823327 1727.2645995019723 546.3413415629793Q1725.2149101442326 541.0707117859343 1721.967350382619 538.8613063743448Q1718.7464099633137 536.6519009627552 1713.236206105494 536.6519009627552L1713.236206105494 536.6519009627552Q1700.698495878281 536.6519009627552 1687.5751601202849 547.1399218322285L1687.5751601202849 547.1399218322285L1687.5751601202849 601.4167607988688L1703.307191424495 601.4167607988688Q1705.7561709168594 601.4167607988688 1705.7561709168594 607.139919395155L1705.7561709168594 607.139919395155Q1705.7561709168594 611.6119689029508 1704.345345774519 613.1292714145243Q1702.9345206321789 614.6199545837896 1701.8963662821548 614.6199545837896L1701.8963662821548 614.6199545837896L1654.1678855233583 614.6199545837896Q1651.7455253733021 614.6199545837896 1651.7455253733021 608.9234153298116L1651.7455253733021 608.9234153298116Q1651.7455253733021 604.4247464797077 1653.1563505156425 602.9340633104423Q1654.5405563156746 601.4167607988688 1655.5787106656985 601.4167607988688L1655.5787106656985 601.4167607988688L1656.5103876464893 601.4167607988688Q1667.3710793082791 601.4167607988688 1668.7819044506195 599.2605940718959L1668.7819044506195 599.2605940718959Q1669.3409106390939 598.5152524872631 1669.3409106390939 597.3972401103142L1669.3409106390939 597.3972401103142L1669.3409106390939 482.74773278843134L1652.8635377502512 482.74773278843134Q1650.254842204037 482.6678747615064 1649.3231652232464 477.9828705152442L1649.3231652232464 477.9828705152442Q1649.136829827088 476.6785227421371 1649.030352457855 475.26769759979675L1649.030352457855 475.26769759979675Q1649.030352457855 470.9819834881592 1651.5591899771441 469.9970678227518Q1654.0880274964334 469.01215215734436 1658.214025554221 468.34666859963664L1658.214025554221 468.34666859963664Q1662.419881638934 467.6811850419289 1666.918550489038 467.30851424961264L1666.918550489038 467.30851424961264Q1675.5165980546215 466.56317266498 1683.3693040355722 466.4833146380551L1683.3693040355722 466.4833146380551Q1687.308966697202 466.4833146380551 1687.49530209336 474.4424979882392L1687.49530209336 474.4424979882392Q1687.49530209336 476.75838076906206 1687.5751601202849 479.2872182883513L1687.5751601202849 479.2872182883513L1687.5751601202849 529.3582011702788Q1699.6603415282568 522.4371721701186 1711.8253809631537 519.8284766239045L1711.8253809631537 519.8284766239045Q1715.392372832467 519.0831350392718 1717.6283975863646 519.0831350392718L1717.6283975863646 519.0831350392718Q1735.9691244367891 519.0831350392718 1742.517482644633 528.6128595856462L1742.517482644633 528.6128595856462Q1747.5751576832115 535.9065593781227 1747.5751576832115 554.433621624705L1747.5751576832115 554.433621624705L1747.5751576832115 601.4167607988688L1762.1625572681644 601.4167607988688Q1764.6115367605287 601.4167607988688 1764.6115367605287 607.139919395155L1764.6115367605287 607.139919395155Q1764.6115367605287 611.6119689029508 1763.2007116181883 613.1292714145243Q1761.7898864758479 614.6199545837896 1760.7783514681323 614.6199545837896L1760.7783514681323 614.6199545837896L1718.2938811440724 614.6199545837896Q1715.7650436247832 614.6199545837896 1715.7650436247832 608.9234153298116L1715.7650436247832 608.9234153298116Q1715.7650436247832 604.4247464797077 1717.1492494248153 602.9340633104423Q1718.5600745671557 601.4167607988688 1719.5982289171795 601.4167607988688ZM1773.3959197222703 566.5188030326769L1773.3959197222703 566.5188030326769Q1773.3959197222703 554.9127697862546 1777.2291050146666 545.9420514283547L1777.2291050146666 545.9420514283547Q1780.982432280138 537.1310491243048 1787.3444550918236 531.1416971049355L1787.3444550918236 531.1416971049355Q1800.254836111353 519.1629930661968 1819.261046519485 519.0831350392718L1819.261046519485 519.0831350392718L1819.5538592848764 519.0831350392718Q1836.9362898122015 519.0831350392718 1846.3861563316511 530.0236847279865L1846.3861563316511 530.0236847279865Q1855.8626421934089 540.8843763897762 1855.8626421934089 561.3812699671735L1855.8626421934089 561.3812699671735Q1855.8626421934089 565.7734614480443 1851.8165021625457 568.9411631827329L1851.8165021625457 568.9411631827329Q1847.9034588432244 572.0290068904967 1841.9141068238553 572.0290068904967L1841.9141068238553 572.0290068904967L1792.5884655265602 572.0290068904967Q1794.2654840919838 593.9367256102341 1807.841348669221 600.1124130257617L1807.841348669221 600.1124130257617Q1812.1536821231668 602.0822443565764 1816.918544396354 602.0822443565764L1816.918544396354 602.0822443565764Q1821.6834066695412 602.0822443565764 1825.4367339350126 600.9908513219359Q1829.190061200484 599.9260776296035 1832.650575700564 598.3022977487967Q1836.1110902006442 596.6518985256816 1839.3852693045658 594.602209167942L1839.3852693045658 594.602209167942Q1846.1998209354927 590.289875713996 1847.424310681675 590.289875713996L1847.424310681675 590.289875713996Q1848.542323058624 590.369733740921 1849.8732901740393 591.4078880909449L1849.8732901740393 591.4078880909449Q1850.9913025509884 592.525900467894 1852.1093149279375 594.0432029794674L1852.1093149279375 594.0432029794674Q1854.5316750779932 597.5835755064725 1854.6381524472265 600.0325549988368L1854.6381524472265 600.0325549988368L1854.6381524472265 600.2188903949948Q1854.6381524472265 602.4549151488927 1853.5999980972026 603.2002567335253L1853.5999980972026 603.2002567335253Q1836.4837609929602 616.4833085453711 1814.6825196424563 616.4833085453711L1814.6825196424563 616.4833085453711Q1795.1173030458497 616.4833085453711 1784.1767533571349 602.827585941209L1784.1767533571349 602.827585941209Q1773.3959197222703 589.5445341293635 1773.3959197222703 566.5188030326769ZM1792.5884655265602 558.0006134940184L1836.6700963891187 558.0006134940184L1836.6700963891187 557.6279427017021Q1836.6700963891187 539.1008804551195 1825.915882096562 534.7885470011736L1825.915882096562 534.7885470011736Q1822.535225623407 533.4841992280666 1818.4092275656192 533.4841992280666L1818.4092275656192 533.4841992280666Q1814.3098488501398 533.4841992280666 1809.8111800000358 534.9748823973318L1809.8111800000358 534.9748823973318Q1805.3125111499314 536.5720429358303 1801.5858032267686 539.5534092743608L1801.5858032267686 539.5534092743608Q1793.253949084268 546.394580247596 1792.5884655265602 558.0006134940184L1792.5884655265602 558.0006134940184ZM1870.0773709860453 479.6598890806676L1870.0773709860453 479.6598890806676Q1870.0773709860453 473.77701443053155 1872.499731136101 473.77701443053155L1872.499731136101 473.77701443053155L1926.9629054988998 473.77701443053155Q1963.9371719651397 473.77701443053155 1980.2282094578238 491.5587350924813L1980.2282094578238 491.5587350924813Q1995.3746152312513 508.11596600824896 1995.4810926004845 543.6794073321486L1995.4810926004845 543.6794073321486L1995.4810926004845 543.97222009754Q1995.4810926004845 579.5356614214395 1974.0525220422967 598.1425816949468L1974.0525220422967 598.1425816949468Q1955.1527890033979 614.5134772145564 1926.9629054988998 614.6199545837896L1926.9629054988998 614.6199545837896L1875.2149040515485 614.6199545837896Q1872.6860665322595 614.6199545837896 1872.6860665322595 609.2960861221279L1872.6860665322595 609.2960861221279Q1872.6860665322595 604.983752668182 1875.1350460246238 602.1621023835014L1875.1350460246238 602.1621023835014Q1875.773910240023 601.4167607988688 1878.3027477593125 601.4167607988688L1878.3027477593125 601.4167607988688Q1880.7517272516768 601.4167607988688 1883.4669001671243 601.1505673757856L1883.4669001671243 601.1505673757856Q1886.2619311094966 600.9642319796276 1887.7526142787617 600.485083818078L1887.7526142787617 600.485083818078Q1890.3879291672845 599.6332648642122 1890.3879291672845 597.3972401103142L1890.3879291672845 597.3972401103142L1890.3879291672845 488.2845559885594Q1890.3879291672845 486.9802082154523 1889.2699167903354 486.9802082154523L1889.2699167903354 486.9802082154523L1873.9105562784414 486.9802082154523Q1871.3018607322272 486.9802082154523 1870.343564409128 482.10886857303194L1870.343564409128 482.10886857303194Q1870.15722901297 480.80452079992483 1870.0773709860453 479.6598890806676ZM1910.1394811600487 488.1780786193262L1910.1394811600487 600.2188903949948L1923.8750617911357 600.2188903949948Q1943.9194265492918 600.2188903949948 1957.94781994577 587.2020320062322L1957.94781994577 587.2020320062322Q1973.6798512499802 572.5081550520463 1973.6798512499802 546.9535864360705L1973.6798512499802 546.9535864360705Q1973.6798512499802 503.1647683389036 1946.341786699348 491.8249285155644L1946.341786699348 491.8249285155644Q1937.5574037376061 488.1780786193262 1926.2175639142667 488.1780786193262L1926.2175639142667 488.1780786193262L1910.1394811600487 488.1780786193262ZM2012.783665100885 566.5188030326769L2012.783665100885 566.5188030326769Q2012.783665100885 554.9127697862546 2016.616850393281 545.9420514283547L2016.616850393281 545.9420514283547Q2020.3701776587525 537.1310491243048 2026.732200470438 531.1416971049355L2026.732200470438 531.1416971049355Q2039.6425814899678 519.1629930661968 2058.6487918980993 519.0831350392718L2058.6487918980993 519.0831350392718L2058.914985321183 519.0831350392718Q2076.324035190816 519.0831350392718 2085.773901710266 530.0236847279865L2085.773901710266 530.0236847279865Q2095.250387572023 540.8843763897762 2095.250387572023 561.3812699671735L2095.250387572023 561.3812699671735Q2095.250387572023 565.7734614480443 2091.204247541161 568.9411631827329L2091.204247541161 568.9411631827329Q2087.2912042218395 572.0290068904967 2081.3018522024695 572.0290068904967L2081.3018522024695 572.0290068904967L2031.976210905175 572.0290068904967Q2033.6532294705983 593.9367256102341 2047.2290940478358 600.1124130257617L2047.2290940478358 600.1124130257617Q2051.541427501781 602.0822443565764 2056.3062897749687 602.0822443565764L2056.3062897749687 602.0822443565764Q2061.0711520481555 602.0822443565764 2064.8244793136273 600.9908513219359Q2068.5778065790983 599.9260776296035 2072.038321079179 598.3022977487967Q2075.4988355792584 596.6518985256816 2078.773014683181 594.602209167942L2078.773014683181 594.602209167942Q2085.587566314108 590.289875713996 2086.8120560602893 590.289875713996L2086.8120560602893 590.289875713996Q2087.9300684372383 590.369733740921 2089.261035552654 591.4078880909449L2089.261035552654 591.4078880909449Q2090.379047929603 592.525900467894 2091.497060306552 594.0432029794674L2091.497060306552 594.0432029794674Q2093.9194204566074 597.5835755064725 2094.0258978258416 600.0325549988368L2094.0258978258416 600.0325549988368L2094.0258978258416 600.2188903949948Q2094.0258978258416 602.4549151488927 2092.9877434758173 603.2002567335253L2092.9877434758173 603.2002567335253Q2075.8715063715754 616.4833085453711 2054.0702650210706 616.4833085453711L2054.0702650210706 616.4833085453711Q2034.5050484244641 616.4833085453711 2023.5644987357493 602.827585941209L2023.5644987357493 602.827585941209Q2012.783665100885 589.5445341293635 2012.783665100885 566.5188030326769ZM2031.976210905175 558.0006134940184L2076.0578417677334 558.0006134940184L2076.0578417677334 557.6279427017021Q2076.0578417677334 539.1008804551195 2065.3036274751767 534.7885470011736L2065.3036274751767 534.7885470011736Q2061.9229710020218 533.4841992280666 2057.796972944234 533.4841992280666L2057.796972944234 533.4841992280666Q2053.6975942287545 533.4841992280666 2049.1989253786505 534.9748823973318L2049.1989253786505 534.9748823973318Q2044.7002565285463 536.5720429358303 2040.946929263075 539.5534092743608L2040.946929263075 539.5534092743608Q2032.6416944628825 546.394580247596 2031.976210905175 558.0006134940184L2031.976210905175 558.0006134940184ZM2142.1270493769534 616.4833085453711L2142.1270493769534 616.4833085453711Q2122.9345035726637 616.4833085453711 2122.9345035726637 590.556069137079L2122.9345035726637 590.556069137079L2122.9345035726637 535.3475531896481L2105.1527829107135 535.3475531896481Q2105.1527829107135 525.0724870586412 2106.430511341513 522.9961783585932Q2107.681620430003 520.9464890008535 2109.172303599268 520.9464890008535L2109.172303599268 520.9464890008535L2110.1305999223678 520.9464890008535Q2121.6301557995566 520.9464890008535 2123.972657922688 518.7903222738805L2123.972657922688 518.7903222738805Q2124.9043349034782 518.0449806892478 2125.0108122727115 516.9269683122989L2125.0108122727115 516.9269683122989L2129.030332961266 496.2437393387435Q2130.148345338215 491.0795869309318 2141.1953723961633 491.0795869309318L2141.1953723961633 491.0795869309318L2141.1953723961633 520.9464890008535L2166.4571282467477 520.9464890008535Q2168.7996303698783 520.9464890008535 2168.7996303698783 526.4566928586733L2168.7996303698783 526.4566928586733Q2168.693153000645 531.887038689568 2166.4571282467477 534.5223535780906L2166.4571282467477 534.5223535780906Q2165.7916446890395 535.3475531896481 2164.7801096813246 535.3475531896481L2164.7801096813246 535.3475531896481L2141.1953723961633 535.3475531896481L2141.1953723961633 590.556069137079Q2141.1953723961633 601.0440900065523 2147.3710598116904 601.0440900065523L2147.3710598116904 601.0440900065523Q2154.3719468387753 601.0440900065523 2157.326693834998 599.9793163142201Q2160.2814408312197 598.8879232795796 2161.399453208169 598.8879232795796L2161.399453208169 598.8879232795796Q2162.437607558193 598.8879232795796 2163.502381250525 599.6066455219038Q2164.5937742851656 600.2987484219198 2165.3391158697987 601.4167607988688L2165.3391158697987 601.4167607988688Q2166.936276408297 603.8657402912331 2166.936276408297 606.4744358374473L2166.936276408297 606.4744358374473Q2166.936276408297 609.2960861221279 2165.1527804736406 610.1212857336855L2165.1527804736406 610.1212857336855Q2153.067599065668 616.4833085453711 2142.1270493769534 616.4833085453711ZM2215.9691049402 532.2597094818843L2206.412761051518 532.2597094818843Q2207.530773428467 534.7086889742487 2207.530773428467 537.7965326820124L2207.530773428467 537.7965326820124Q2207.530773428467 540.8843763897762 2206.599096447676 543.2268785129073L2206.599096447676 543.2268785129073Q2205.481084070727 545.5427612937301 2203.8040655053037 547.2463992014618L2203.8040655053037 547.2463992014618Q2200.237073635991 550.7867717284669 2194.726869778171 550.8932490977L2194.726869778171 550.8932490977Q2186.0223448433535 550.8932490977 2182.8280237663566 543.2268785129073L2182.8280237663566 543.2268785129073Q2181.8963467855665 540.8843763897762 2181.8963467855665 537.4238618896961L2181.8963467855665 537.4238618896961Q2181.8963467855665 534.043205416541 2183.866178116381 531.0618390780105Q2185.8360094471955 528.0538533971717 2189.056949866501 525.8976866701987Q2192.2778902858063 523.7415199432257 2196.350649658977 522.4371721701186Q2200.423409032149 521.1328243970116 2204.6292651168615 520.387482812379L2204.6292651168615 520.387482812379Q2212.029442278571 519.0831350392718 2220.840444582621 519.0831350392718L2220.840444582621 519.0831350392718Q2229.518350175129 519.0831350392718 2235.933611671431 521.8781659816442Q2242.3488731677335 524.6731969240166 2246.1022004332053 529.4646785395121L2246.1022004332053 529.4646785395121Q2252.5440812718152 537.7965326820124 2252.5440812718152 553.049415824673L2252.5440812718152 553.049415824673L2252.5440812718152 601.4167607988688L2268.276112576026 601.4167607988688Q2270.804950095315 601.4167607988688 2270.804950095315 606.9535839989969L2270.804950095315 606.9535839989969Q2270.804950095315 609.3759441490529 2269.8732731145246 611.7716849568005Q2268.9415961337336 614.1408064222401 2266.971764802919 614.6199545837896L2266.971764802919 614.6199545837896Q2261.727754368182 616.1106377530548 2251.985075083341 616.1106377530548L2251.985075083341 616.1106377530548Q2242.1625377715754 616.1106377530548 2241.0445253946264 615.7912056453551Q2239.9265130176773 615.4717735376555 2238.994836036887 614.6199545837896L2238.994836036887 614.6199545837896Q2237.2113401022307 613.022794045291 2235.4278441675733 608.1514544028707L2235.4278441675733 608.1514544028707Q2224.008146317309 616.4833085453711 2207.903444220783 616.4833085453711L2207.903444220783 616.4833085453711Q2193.5023800319887 616.4833085453711 2185.2770032587214 608.8169379605783L2185.2770032587214 608.8169379605783Q2177.504155304695 601.7095735642602 2177.504155304695 590.1833983447627L2177.504155304695 590.1833983447627L2177.504155304695 589.9172049216797Q2177.504155304695 575.5959987598098 2188.0720342010936 567.5569573827008L2188.0720342010936 567.5569573827008Q2197.3355653243843 560.4229736440743 2211.1776233247047 560.4229736440743L2211.1776233247047 560.4229736440743L2234.309831790625 560.4229736440743Q2234.309831790625 544.7974197090975 2231.7277555867186 540.2721315166851Q2229.145679382813 535.7202239819644 2225.5520681711914 533.9899667319244Q2221.95845695957 532.2597094818843 2215.9691049402 532.2597094818843L2215.9691049402 532.2597094818843ZM2211.284100693938 602.0822443565764L2211.284100693938 602.0822443565764Q2223.076469336519 602.0822443565764 2234.309831790625 592.712235864052L2234.309831790625 592.712235864052L2234.309831790625 574.477986382861L2213.892796240152 574.477986382861Q2206.412761051518 574.477986382861 2202.8723885245126 577.0068239021502L2202.8723885245126 577.0068239021502Q2196.403888343594 581.4788734099459 2196.403888343594 587.3883674023905L2196.403888343594 587.3883674023905Q2196.403888343594 598.4353944603383 2205.5609420976516 601.2304254027106L2205.5609420976516 601.2304254027106Q2208.276115013099 602.0822443565764 2211.284100693938 602.0822443565764ZM2299.447362419054 495.5782557810358L2299.447362419054 495.5782557810358Q2290.7428374842375 495.5782557810358 2287.5485164072406 487.9118851962431L2287.5485164072406 487.9118851962431Q2286.6168394264505 485.569383073112 2286.6168394264505 482.74773278843134L2286.6168394264505 482.74773278843134Q2286.6168394264505 473.8568724574564 2294.389687380476 470.68917072276776L2294.389687380476 470.68917072276776Q2296.7321895036075 469.757493741977 2299.447362419054 469.757493741977L2299.447362419054 469.757493741977Q2304.877708249949 469.757493741977 2308.5511774884963 473.4575823228318Q2312.251266069351 477.15767090368666 2312.251266069351 482.74773278843134L2312.251266069351 482.74773278843134Q2312.251266069351 488.2845559885594 2308.5245581461877 492.0378832540309L2308.5245581461877 492.0378832540309Q2304.957566276875 495.5782557810358 2299.447362419054 495.5782557810358ZM2324.8954536657975 614.6199545837896L2277.166972907001 614.6199545837896Q2274.7446127569447 614.6199545837896 2274.7446127569447 608.9234153298116L2274.7446127569447 608.9234153298116Q2274.7446127569447 604.4247464797077 2276.1288185569765 602.9340633104423Q2277.539643699317 601.4167607988688 2278.5777980493413 601.4167607988688L2278.5777980493413 601.4167607988688L2279.5094750301314 601.4167607988688Q2290.450024718846 601.4167607988688 2291.8608498611866 599.2605940718959L2291.8608498611866 599.2605940718959Q2292.3133786804283 598.6217298564964 2292.3133786804283 597.6900528757055L2292.3133786804283 597.6900528757055L2292.3133786804283 535.3475531896481L2275.8626251338937 535.3475531896481Q2273.1474522184462 535.2676951627232 2272.215775237655 530.5826909164609L2272.215775237655 530.5826909164609Q2272.029439841497 529.2783431433538 2272.029439841497 527.8675180010135L2272.029439841497 527.8675180010135Q2272.029439841497 523.5551845470677 2274.531658018478 522.5702688816602Q2277.0604955377676 521.5853532162528 2281.1864935955555 520.9464890008535Q2285.3124916533434 520.2810054431458 2289.8111605034474 519.9083346508294L2289.8111605034474 519.9083346508294Q2298.4092080690307 519.1629930661968 2306.3683914192143 519.0831350392718L2306.3683914192143 519.0831350392718L2306.44824944614 519.0831350392718Q2310.387912107769 519.0831350392718 2310.574247503928 527.0156990471477L2310.574247503928 527.0156990471477L2310.574247503928 601.4167607988688L2326.306278808138 601.4167607988688Q2328.728638958193 601.4167607988688 2328.728638958193 607.139919395155L2328.728638958193 607.139919395155Q2328.728638958193 611.6119689029508 2327.317813815853 613.1292714145243Q2325.933608015821 614.6199545837896 2324.8954536657975 614.6199545837896L2324.8954536657975 614.6199545837896ZM2383.005477924834 614.6199545837896L2335.2769971660373 614.6199545837896Q2332.854637015981 614.6199545837896 2332.854637015981 608.9234153298116L2332.854637015981 608.9234153298116Q2332.854637015981 604.4247464797077 2334.238842816013 602.9340633104423Q2335.6496679583533 601.4167607988688 2336.6878223083777 601.4167607988688L2336.6878223083777 601.4167607988688L2337.6194992891687 601.4167607988688Q2348.480190950958 601.4167607988688 2349.8910160932983 599.2605940718959L2349.8910160932983 599.2605940718959Q2350.4500222817733 598.5152524872631 2350.4500222817733 597.3972401103142L2350.4500222817733 597.3972401103142L2350.4500222817733 482.74773278843134L2333.97264939293 482.74773278843134Q2331.3373345044074 482.6678747615064 2330.4056575236164 477.9828705152442L2330.4056575236164 477.9828705152442Q2330.2193221274583 476.6785227421371 2330.1394641005336 475.26769759979675L2330.1394641005336 475.26769759979675Q2330.1394641005336 470.9819834881592 2332.668301619823 469.9970678227518Q2335.1971391391126 469.01215215734436 2339.296517854592 468.34666859963664L2339.296517854592 468.34666859963664Q2343.5023739393046 467.6811850419289 2348.0010427894085 467.30851424961264L2348.0010427894085 467.30851424961264Q2356.6257096973004 466.56317266498 2364.4784156782516 466.4833146380551L2364.4784156782516 466.4833146380551Q2368.4180783398806 466.4833146380551 2368.6044137360386 474.4424979882392L2368.6044137360386 474.4424979882392Q2368.6044137360386 476.75838076906206 2368.6842717629634 479.2872182883513L2368.6842717629634 479.2872182883513L2368.6842717629634 601.4167607988688L2384.4163030671743 601.4167607988688Q2386.8386632172305 601.4167607988688 2386.8386632172305 607.139919395155L2386.8386632172305 607.139919395155Q2386.8386632172305 611.6119689029508 2385.42783807489 613.1292714145243Q2384.0436322748574 614.6199545837896 2383.005477924834 614.6199545837896L2383.005477924834 614.6199545837896ZM2421.3639501911057 602.0822443565764L2421.3639501911057 602.0822443565764L2432.038306456737 602.0822443565764Q2445.0551648455003 602.0822443565764 2449.5538336956033 594.1230610063924L2449.5538336956033 594.1230610063924Q2450.8581814687113 591.7007008563362 2450.8581814687113 588.7991925447307L2450.8581814687113 588.7991925447307Q2450.8581814687113 585.8976842331251 2449.500595010987 583.7947561907688Q2448.143008553264 581.6652088061041 2445.2415002416574 579.9083322137558L2445.2415002416574 579.9083322137558Q2440.8493087607876 577.1931592983085 2430.600861972088 574.0520769059281Q2420.35241518339 570.9109945135476 2415.0019273794196 568.6217310750333Q2409.678058917759 566.3324676365187 2405.738396256129 563.1381465595217L2405.738396256129 563.1381465595217Q2397.6993548790197 556.4034529555198 2397.6993548790197 544.6110843129393L2397.6993548790197 544.6110843129393Q2397.6993548790197 527.3085118125391 2417.0782360794683 521.3191597931698L2417.0782360794683 521.3191597931698Q2424.3719358719445 519.0831350392718 2431.4793002682627 519.0831350392718L2431.4793002682627 519.0831350392718Q2438.506806637656 519.0831350392718 2444.4961586570253 520.0148120200627L2444.4961586570253 520.0148120200627Q2450.6718460725524 520.9464890008535 2455.5431857149733 523.1825137547513L2455.5431857149733 523.1825137547513Q2466.670070799846 528.3466661625631 2466.670070799846 537.8763907089374L2466.670070799846 537.8763907089374L2466.670070799846 538.355538870487Q2466.670070799846 543.5995493052236 2463.0232209036076 547.2463992014618L2463.0232209036076 547.2463992014618Q2459.4562290342947 550.7867717284669 2453.8395478072416 550.8932490977L2453.8395478072416 550.8932490977Q2445.0551648455003 550.8932490977 2441.8608437685025 543.2268785129073L2441.8608437685025 543.2268785129073Q2440.9291667877114 540.8843763897762 2440.9291667877114 539.3670738782026L2440.9291667877114 539.3670738782026Q2440.9291667877114 537.8763907089374 2442.0471791646605 532.2597094818843L2442.0471791646605 532.2597094818843L2432.78364804137 532.2597094818843Q2425.22375482581 532.2597094818843 2421.5769049295723 534.8950243704069L2421.5769049295723 534.8950243704069Q2414.922069352495 539.4735512474358 2414.922069352495 544.9837551052556L2414.922069352495 544.9837551052556Q2414.922069352495 552.3040742400403 2428.018785768183 556.7761237478361L2428.018785768183 556.7761237478361L2435.1261501645004 559.2251032402005Q2453.200683591842 565.2144552595698 2458.3382166573456 569.4203113442825Q2463.502369065157 573.6261674289951 2465.81825184598 578.5773650983404Q2468.1607539691113 583.5551821099941 2468.1607539691113 589.9172049216797L2468.1607539691113 589.9172049216797Q2468.1607539691113 596.3590857602901 2465.631916449822 601.0440900065523L2465.631916449822 601.0440900065523Q2463.2095562997656 605.8355716220478 2458.7108874496616 609.1896087528946L2458.7108874496616 609.1896087528946Q2449.074685534054 616.4833085453711 2433.635466995236 616.4833085453711L2433.635466995236 616.4833085453711Q2419.979744391074 616.4833085453711 2409.119052729284 612.3839298298917L2409.119052729284 612.3839298298917Q2401.0800113521746 609.3759441490529 2397.6993548790197 603.7592629219998L2397.6993548790197 603.7592629219998Q2396.0223363135965 600.9642319796276 2396.0223363135965 597.6900528757055L2396.0223363135965 597.6900528757055Q2396.0223363135965 594.4957317987087 2396.9540132943866 592.1532296755774L2396.9540132943866 592.1532296755774Q2398.0720256713366 589.7308695255215 2399.74904423676 588.0538509600981L2399.74904423676 588.0538509600981Q2403.3958941329975 584.4868590907847 2408.9327173331258 584.4868590907847L2408.9327173331258 584.4868590907847Q2414.363063164021 584.4868590907847 2418.089771087184 588.133708987023L2418.089771087184 588.133708987023Q2421.843098352655 591.7007008563362 2421.843098352655 596.1727503641321L2421.843098352655 596.1727503641321L2421.843098352655 596.2792277333654Q2421.7632403257303 600.9642319796276 2421.3639501911057 602.0822443565764Z " fill="#ffffff" transform="matrix(0.3545149667757614,0,0,0.35451496677576133,0,108.03606160704771)"/></g></svg>